# xmcd CD database file generated by Grip 3.2.0
#
# Track frame offsets:
#       150
#       18149
#       34265
#       51617
#       74976
#       97463
#       129109
#       144504
#       160042
#       178683
#       201571
#       216312
#       231960
#
# Disc length: 3307 seconds
#
# Revision: 1
# Processed by: cddbd v1.5.1PL2 Copyright (c) Steve Scherf et al.
# Submitted via: Grip 3.2.0  GR/20.08.2006
#
DISCID=ce0ce90d
DTITLE=CrossroadS - Let the guitars do the talking
DYEAR=2003
DGENRE=misc
TTITLE0=Before you accuse me
TTITLE1=Crossroads
TTITLE2=I'm tore down
TTITLE3=Keep on going
TTITLE4=Magnolia
TTITLE5=Merci, merci, merci
TTITLE6=Street Corner Talking
TTITLE7=T.Bone Shuffle
TTITLE8=The Stumble
TTITLE9=The Thrill is gone
TTITLE10=Water and Oil
TTITLE11=Why means nothing
TTITLE12=You don't love me
EXTD=
EXTT0=
EXTT1=
EXTT2=
EXTT3=
EXTT4=
EXTT5=
EXTT6=
EXTT7=
EXTT8=
EXTT9=
EXTT10=
EXTT11=
EXTT12=
PLAYORDER=
